<svg xmlns="http://www.w3.org/2000/svg" viewBox="0 0 185 178.55"><defs><style>.cls-1{fill:#fce65d;}.cls-2{fill:#fed002;}.cls-3{fill:#e2d7d3;}.cls-4{fill:#cdb9ae;}.cls-5,.cls-7{fill:#6d6460;}.cls-6{fill:none;}.cls-6,.cls-7{stroke:#433025;stroke-miterlimit:10;stroke-width:2px;}.cls-8{fill:#fff;}.cls-9{fill:#f77bb9;}</style></defs><title>logo</title><g id="Camada_2" data-name="Camada 2"><g id="Camada_3" data-name="Camada 3"><circle class="cls-1" cx="93.5" cy="91.5" r="77.5"/><circle class="cls-2" cx="94.5" cy="91.5" r="68.5"/><rect class="cls-3" x="68" y="134" width="50" height="10"/><polygon class="cls-4" points="118 144.59 117.99 164.68 112.41 171 73.88 171 68 165.79 68 145 118 144.59"/><polygon class="cls-5" points="113 143.54 113 163.7 108.32 170 112.64 170.08 118 164.2 118 142.95 113 143.54"/><path class="cls-3" d="M74,144v20.92l4.61,4.81a33.44,33.44,0,0,1-4.73.06c-.25-.21-5.88-5.62-5.88-5.62V144Z"/><line class="cls-6" x1="30" y1="93" y2="93"/><line class="cls-6" x1="12.71" y1="46.8" x2="39.21" y2="62.55"/><path class="cls-6" d="M39.21,124.3c-1.5,0-26.5,16.25-26.5,16.25"/><line class="cls-6" x1="45.96" y1="12.55" x2="61.96" y2="39.05"/><line class="cls-6" x1="93" y1="31" x2="93"/><line class="cls-6" x1="123.71" y1="39.05" x2="139.21" y2="12.55"/><line class="cls-6" x1="146.46" y1="61.72" x2="172.46" y2="45.97"/><line class="cls-6" x1="155" y1="93" x2="185" y2="93"/><line class="cls-6" x1="146.46" y1="123.47" x2="174.21" y2="139.72"/><path class="cls-6" d="M121.5,149.55c-.67-.33-57.75,3.67-57.75,3.67"/><line class="cls-6" x1="121.5" y1="158.72" x2="63.75" y2="161.55"/><line class="cls-6" x1="118" y1="144" x2="69" y2="144.83"/><path class="cls-7" d="M106.88,171.12c0,3.55-6,6.43-13.32,6.43s-13.31-2.88-13.31-6.43"/><path class="cls-3" d="M81.22,171s0,4.53,10.87,5.38c0,0-8.31-1.32-7.12-5.38Z"/><ellipse class="cls-8" cx="93" cy="92.5" rx="49" ry="47.5"/><ellipse class="cls-3" cx="92.5" cy="97" rx="43.5" ry="45"/><path class="cls-9" d="M92.15,64.68s-6.79-6.63-9.92-.63c0,0-2.07,4.14-.92,6.07,0,0-7.26-4-10.86,1.41,0,0-1.89,1.74-1.37,7.94,0,0-5.72.46-5.6,6.33,0,0-.1,6,4.52,5.92,0,0-3.63,2.92-3.32,5.69l2.09,2.89-.54,4.88,1.2,3.71,3.82,4.82,4.38,1,1.62-.27,1.69,3.93,4.17,3,5.48-.25,2.89-1.91.67-1.52,3.26,2.86,5.57.82,5.68-2.39,1.41-2,.41-2.09,5.46-.71,3.84-2.38,1.37-2.62.29-3.85-1.34-3.87-.59-1.13,3.22-3.47-.77-2.5L117.13,92,121,89.83l1-2.89,0-3.64-1.26-2-5.06-2.55.5-3.2-1.81-4.4-2.71-2.64a31,31,0,0,0-4-.66c-.16.15-3.31,1.4-3.31,1.4l.52-2.87a16.65,16.65,0,0,0-1-2.49c-.35-.53-3-3.14-3-3.14L98.66,60l-3.43,1.36Z"/><path class="cls-6" d="M76.75,83.3s-10-2-6.75-10.5c0,0,2.9-7.36,11.58-2.68"/><path class="cls-6" d="M67,100.3c-6-4.75,2.32-8.5,2.32-8.5a5.33,5.33,0,0,1-5.6-6s-1-6.08,6.61-6.41"/><path class="cls-6" d="M84,97.55s-6.8-7-14.65,0c0,0-7.18,6.29,1,15,1.35,1.42,2.39,3,7.64,1.75"/><path class="cls-6" d="M81.58,108.3s-7.72,10.75,2.78,12.75c0,0,8.64,2.25,8.64-5.25V65.55s-5.89-7.75-10.14-1.5c0,0-4.75,6.5,4,10.75"/><path class="cls-6" d="M98.5,74.55s11.09-4.55,4.75-12c-1.79-2.1-6.48-5.75-10.61,3"/><path class="cls-6" d="M109,83.3s11.5-2,6-11.5c0,0-3-7-10.74-2.24"/><path class="cls-6" d="M115.66,79.39c6.67-.42,6.59,5.41,6.59,5.41.75,8-5.76,6.69-5.76,6.69s9.31,4.31,1.28,8.81"/><path class="cls-6" d="M101.25,97.8s11.22-10.5,17.74,5c0,0,4.76,12.11-10.24,12.06"/><path class="cls-6" d="M104.77,108.05s10.57,10.49-3.52,13.32c-2.51.5-6.73.68-8.61-5.57"/><path class="cls-6" d="M100.08,86.22s-7.44-1.17-7.44-6.17c0,0-2.14,6.34-7.89,6.17"/><path class="cls-6" d="M87.33,104.59s4.42-2.2,5.09-5.29c0,0,2.83,4.17,5.83,5.29"/><path class="cls-9" d="M117.83,89.85s-5.23-.06-1.68,3.31l.34.31c4.21,3.68-5.57-2-5.57-2S99.5,83.89,117.83,89.85Z"/><path class="cls-9" d="M69.2,90.11s3.28,1.21.28,3.78,7.24-3.51,7.24-3.51l-8.12-.22"/><path class="cls-6" d="M68.47,134.11a47.37,47.37,0,0,1-24.8-41.36c0-26.3,22-47.62,49.24-47.62s49.25,21.32,49.25,47.62a47.31,47.31,0,0,1-24.16,41l.35,30.39L112.72,170H73.92L68,164.75Z"/></g></g></svg>