<svg xmlns="http://www.w3.org/2000/svg" viewBox="0 0 1023.696 681.314"><defs><style>.a,.b,.c,.d,.e,.g{fill:none;}.a,.b{stroke:#ee2c87;}.b,.c,.d{stroke-width:3px;}.c,.e{stroke:#fff500;}.d{stroke:#fc72b3;}.f{stroke:none;}</style></defs><g transform="translate(343.574 -1341.461)"><g transform="matrix(0.174, 0.985, -0.985, 0.174, 518.499, -43.439)"><line class="a" y1="446.608" x2="608.276" transform="matrix(0.174, 0.985, -0.985, 0.174, 1805.624, 154.686)"/><line class="a" y1="446.608" x2="608.276" transform="matrix(0.174, 0.985, -0.985, 0.174, 1805.624, 255.729)"/><line class="a" y1="446.608" x2="608.276" transform="matrix(0.174, 0.985, -0.985, 0.174, 1805.624, 356.772)"/><line class="a" y1="446.608" x2="608.276" transform="matrix(0.174, 0.985, -0.985, 0.174, 1805.624, 457.814)"/><g class="b" transform="matrix(0.174, 0.985, -0.985, 0.174, 1514.483, 845.796)"><rect class="f" width="76.792" height="76.792"/><rect class="g" x="1.5" y="1.5" width="73.792" height="73.792"/></g><g class="c" transform="matrix(0.174, 0.985, -0.985, 0.174, 1942.626, 505.439)"><rect class="f" width="76.792" height="76.792"/><rect class="g" x="1.5" y="1.5" width="73.792" height="73.792"/></g><g class="d" transform="matrix(0.174, 0.985, -0.985, 0.174, 1724.235, 340.287)"><rect class="f" width="62.646" height="60.626"/><rect class="g" x="1.5" y="1.5" width="59.646" height="57.626"/></g><g class="e" transform="matrix(0.174, 0.985, -0.985, 0.174, 1415.9, 619.221)"><ellipse class="f" cx="37.386" cy="37.386" rx="37.386" ry="37.386"/><ellipse class="g" cx="37.386" cy="37.386" rx="36.886" ry="36.886"/></g><g class="a" transform="matrix(0.174, 0.985, -0.985, 0.174, 1750.948, 962.161)"><ellipse class="f" cx="37.386" cy="37.386" rx="37.386" ry="37.386"/><ellipse class="g" cx="37.386" cy="37.386" rx="36.886" ry="36.886"/></g></g></g></svg>