<svg xmlns="http://www.w3.org/2000/svg" viewBox="0 0 613.696 980.438"><defs><style>.a,.b,.c,.d,.e,.f,.g,.i{fill:none;}.a{stroke:#ffe100;}.b,.g{stroke:#fc72b3;}.c,.f{stroke:#fff500;}.d,.e{stroke:#ee2c87;}.e,.f,.g{stroke-width:3px;}.h{stroke:none;}</style></defs><g transform="translate(-1342.265 -232.325)"><line class="a" y1="446.608" x2="608.276" transform="matrix(0.174, 0.985, -0.985, 0.174, 1805.624, 232.686)"/><line class="b" y1="446.608" x2="608.276" transform="matrix(0.174, 0.985, -0.985, 0.174, 1805.624, 333.729)"/><line class="c" y1="446.608" x2="608.276" transform="matrix(0.174, 0.985, -0.985, 0.174, 1805.624, 434.772)"/><line class="d" y1="446.608" x2="608.276" transform="matrix(0.174, 0.985, -0.985, 0.174, 1805.624, 535.814)"/><g class="e" transform="matrix(0.174, 0.985, -0.985, 0.174, 1514.483, 923.796)"><rect class="h" width="76.792" height="76.792"/><rect class="i" x="1.5" y="1.5" width="73.792" height="73.792"/></g><g class="f" transform="matrix(0.174, 0.985, -0.985, 0.174, 1942.626, 583.439)"><rect class="h" width="76.792" height="76.792"/><rect class="i" x="1.5" y="1.5" width="73.792" height="73.792"/></g><g class="g" transform="matrix(0.174, 0.985, -0.985, 0.174, 1724.235, 418.287)"><rect class="h" width="62.646" height="60.626"/><rect class="i" x="1.5" y="1.5" width="59.646" height="57.626"/></g><g class="c" transform="matrix(0.174, 0.985, -0.985, 0.174, 1415.9, 697.221)"><ellipse class="h" cx="37.386" cy="37.386" rx="37.386" ry="37.386"/><ellipse class="i" cx="37.386" cy="37.386" rx="36.886" ry="36.886"/></g><g class="d" transform="matrix(0.174, 0.985, -0.985, 0.174, 1750.948, 1040.161)"><ellipse class="h" cx="37.386" cy="37.386" rx="37.386" ry="37.386"/><ellipse class="i" cx="37.386" cy="37.386" rx="36.886" ry="36.886"/></g></g></svg>